{
  "accessors": [
    {
      "bufferView": 2,
      "componentType": 5126,
      "count": 65532,
      "max": [
        12554.365234375,
        6382.0,
        11140.42578125
      ],
      "min": [
        -12554.365234375,
        3088.0,
        -11140.42578125
      ],
      "type": "VEC3"
    },
    {
      "bufferView": 2,
      "byteOffset": 786384,
      "componentType": 5126,
      "count": 65532,
      "max": [
        0.9614582657814026,
        1.0,
        0.9022484421730042
      ],
      "min": [
        -0.9619564414024353,
        0.2329723834991455,
        -0.9350650906562805
      ],
      "type": "VEC3"
    },
    {
      "bufferView": 3,
      "componentType": 5126,
      "count": 65532,
      "max": [
        1.0,
        0.9641377925872803,
        0.15654242038726807,
        -1.0
      ],
      "min": [
        0.24750322103500366,
        -0.9688869118690491,
        -0.16216981410980225,
        -1.0
      ],
      "type": "VEC4"
    },
    {
      "bufferView": 1,
      "componentType": 5126,
      "count": 65532,
      "max": [
        1.0,
        1.0
      ],
      "min": [
        0.0,
        0.0
      ],
      "type": "VEC2"
    },
    {
      "bufferView": 1,
      "byteOffset": 524256,
      "componentType": 5126,
      "count": 65532,
      "max": [
        1.0,
        1.0
      ],
      "min": [
        0.0,
        0.0
      ],
      "type": "VEC2"
    },
    {
      "bufferView": 0,
      "componentType": 5125,
      "count": 385254,
      "type": "SCALAR"
    },
    {
      "bufferView": 2,
      "byteOffset": 1572768,
      "componentType": 5126,
      "count": 65532,
      "max": [
        12523.4423828125,
        6442.0,
        11140.42578125
      ],
      "min": [
        -12554.365234375,
        3090.0,
        -7722.49365234375
      ],
      "type": "VEC3"
    },
    {
      "bufferView": 2,
      "byteOffset": 2359152,
      "componentType": 5126,
      "count": 65532,
      "max": [
        0.9590495228767395,
        1.0,
        0.9422929286956787
      ],
      "min": [
        -0.9642984867095947,
        0.2394595593214035,
        -0.9489485025405884
      ],
      "type": "VEC3"
    },
    {
      "bufferView": 3,
      "byteOffset": 1048512,
      "componentType": 5126,
      "count": 65532,
      "max": [
        1.0,
        0.9675161242485046,
        0.31466466188430786,
        -1.0
      ],
      "min": [
        0.24460171163082123,
        -0.9695930480957031,
        -0.17164723575115204,
        -1.0
      ],
      "type": "VEC4"
    },
    {
      "bufferView": 1,
      "byteOffset": 1048512,
      "componentType": 5126,
      "count": 65532,
      "max": [
        0.9987685084342957,
        1.0
      ],
      "min": [
        0.0,
        0.15340222418308258
      ],
      "type": "VEC2"
    },
    {
      "bufferView": 1,
      "byteOffset": 1572768,
      "componentType": 5126,
      "count": 65532,
      "max": [
        0.9987685084342957,
        1.0
      ],
      "min": [
        0.0,
        0.15340222418308258
      ],
      "type": "VEC2"
    },
    {
      "bufferView": 0,
      "byteOffset": 1541016,
      "componentType": 5125,
      "count": 385719,
      "type": "SCALAR"
    },
    {
      "bufferView": 2,
      "byteOffset": 3145536,
      "componentType": 5126,
      "count": 65532,
      "max": [
        12492.5205078125,
        6440.0,
        11140.42578125
      ],
      "min": [
        -12554.365234375,
        3092.0,
        -4349.65380859375
      ],
      "type": "VEC3"
    },
    {
      "bufferView": 2,
      "byteOffset": 3931920,
      "componentType": 5126,
      "count": 65532,
      "max": [
        0.9534631371498108,
        1.0,
        0.9411817789077759
      ],
      "min": [
        -0.9751257300376892,
        0.2120705395936966,
        -0.9546155333518982
      ],
      "type": "VEC3"
    },
    {
      "bufferView": 3,
      "byteOffset": 2097024,
      "componentType": 5126,
      "count": 65532,
      "max": [
        1.0,
        0.9771602153778076,
        0.1793106198310852,
        -1.0
      ],
      "min": [
        0.21250386536121368,
        -0.9628883004188538,
        -0.14920540153980255,
        -1.0
      ],
      "type": "VEC4"
    },
    {
      "bufferView": 1,
      "byteOffset": 2097024,
      "componentType": 5126,
      "count": 65532,
      "max": [
        0.9975369572639465,
        1.0
      ],
      "min": [
        0.0,
        0.30478063225746155
      ],
      "type": "VEC2"
    },
    {
      "bufferView": 1,
      "byteOffset": 2621280,
      "componentType": 5126,
      "count": 65532,
      "max": [
        0.9975369572639465,
        1.0
      ],
      "min": [
        0.0,
        0.30478063225746155
      ],
      "type": "VEC2"
    },
    {
      "bufferView": 0,
      "byteOffset": 3083892,
      "componentType": 5125,
      "count": 386193,
      "type": "SCALAR"
    },
    {
      "bufferView": 2,
      "byteOffset": 4718304,
      "componentType": 5126,
      "count": 65532,
      "max": [
        12461.5986328125,
        6222.0,
        11140.42578125
      ],
      "min": [
        -12554.365234375,
        3094.0,
        -890.5199584960938
      ],
      "type": "VEC3"
    },
    {
      "bufferView": 2,
      "byteOffset": 5504688,
      "componentType": 5126,
      "count": 65532,
      "max": [
        0.9696421027183533,
        1.0,
        0.954006552696228
      ],
      "min": [
        -0.958342969417572,
        0.15788759291172028,
        -0.9344119429588318
      ],
      "type": "VEC3"
    },
    {
      "bufferView": 3,
      "byteOffset": 3145536,
      "componentType": 5126,
      "count": 65532,
      "max": [
        1.0,
        0.9729770421981812,
        0.25755268335342407,
        -1.0
      ],
      "min": [
        0.1606265753507614,
        -0.9870151877403259,
        -0.34017685055732727,
        -1.0
      ],
      "type": "VEC4"
    },
    {
      "bufferView": 1,
      "byteOffset": 3145536,
      "componentType": 5126,
      "count": 65532,
      "max": [
        0.9963054656982422,
        1.0
      ],
      "min": [
        0.0,
        0.46003207564353943
      ],
      "type": "VEC2"
    },
    {
      "bufferView": 1,
      "byteOffset": 3669792,
      "componentType": 5126,
      "count": 65532,
      "max": [
        0.9963054656982422,
        1.0
      ],
      "min": [
        0.0,
        0.46003207564353943
      ],
      "type": "VEC2"
    },
    {
      "bufferView": 0,
      "byteOffset": 4628664,
      "componentType": 5125,
      "count": 386673,
      "type": "SCALAR"
    },
    {
      "bufferView": 2,
      "byteOffset": 6291072,
      "componentType": 5126,
      "count": 65532,
      "max": [
        12430.6767578125,
        6052.0,
        11140.42578125
      ],
      "min": [
        -12554.365234375,
        3096.0,
        2567.286376953125
      ],
      "type": "VEC3"
    },
    {
      "bufferView": 2,
      "byteOffset": 7077456,
      "componentType": 5126,
      "count": 65532,
      "max": [
        0.9478335380554199,
        1.0,
        0.9153918027877808
      ],
      "min": [
        -0.9762060642242432,
        0.2114351987838745,
        -0.9475383758544922
      ],
      "type": "VEC3"
    },
    {
      "bufferView": 3,
      "byteOffset": 4194048,
      "componentType": 5126,
      "count": 65532,
      "max": [
        1.0,
        0.9773434996604919,
        0.18276630342006683,
        -1.0
      ],
      "min": [
        0.21165888011455536,
        -0.9478983879089355,
        -0.175096794962883,
        -1.0
      ],
      "type": "VEC4"
    },
    {
      "bufferView": 1,
      "byteOffset": 4194048,
      "componentType": 5126,
      "count": 65532,
      "max": [
        0.9950739145278931,
        1.0
      ],
      "min": [
        0.0,
        0.6152238845825195
      ],
      "type": "VEC2"
    },
    {
      "bufferView": 1,
      "byteOffset": 4718304,
      "componentType": 5126,
      "count": 65532,
      "max": [
        0.9950739145278931,
        1.0
      ],
      "min": [
        0.0,
        0.6152238845825195
      ],
      "type": "VEC2"
    },
    {
      "bufferView": 0,
      "byteOffset": 6175356,
      "componentType": 5125,
      "count": 387153,
      "type": "SCALAR"
    },
    {
      "bufferView": 2,
      "byteOffset": 7863840,
      "componentType": 5126,
      "count": 65532,
      "max": [
        12399.75390625,
        6260.0,
        11140.42578125
      ],
      "min": [
        -12554.365234375,
        3078.0,
        6023.76708984375
      ],
      "type": "VEC3"
    },
    {
      "bufferView": 2,
      "byteOffset": 8650224,
      "componentType": 5126,
      "count": 65532,
      "max": [
        0.961194634437561,
        1.0,
        0.9373441934585571
      ],
      "min": [
        -0.9550805687904358,
        0.22540254890918732,
        -0.9578624963760376
      ],
      "type": "VEC3"
    },
    {
      "bufferView": 3,
      "byteOffset": 5242560,
      "componentType": 5126,
      "count": 65532,
      "max": [
        1.0,
        0.9626027345657349,
        0.11928416043519974,
        -1.0
      ],
      "min": [
        0.2315353900194168,
        -0.9728246331214905,
        -0.2512756884098053,
        -1.0
      ],
      "type": "VEC4"
    },
    {
      "bufferView": 1,
      "byteOffset": 5242560,
      "componentType": 5126,
      "count": 65532,
      "max": [
        0.9938423037528992,
        1.0
      ],
      "min": [
        0.0,
        0.7703562378883362
      ],
      "type": "VEC2"
    },
    {
      "bufferView": 1,
      "byteOffset": 5766816,
      "componentType": 5126,
      "count": 65532,
      "max": [
        0.9938423037528992,
        1.0
      ],
      "min": [
        0.0,
        0.7703562378883362
      ],
      "type": "VEC2"
    },
    {
      "bufferView": 0,
      "byteOffset": 7723968,
      "componentType": 5125,
      "count": 387636,
      "type": "SCALAR"
    },
    {
      "bufferView": 2,
      "byteOffset": 9436608,
      "componentType": 5126,
      "count": 27714,
      "max": [
        12368.83203125,
        5952.0,
        11140.42578125
      ],
      "min": [
        -12554.365234375,
        3018.0,
        -7722.49365234375
      ],
      "type": "VEC3"
    },
    {
      "bufferView": 2,
      "byteOffset": 9769176,
      "componentType": 5126,
      "count": 27714,
      "max": [
        0.9491981863975525,
        1.0,
        0.864273190498352
      ],
      "min": [
        -0.9078370332717896,
        0.30177775025367737,
        -0.9172490239143372
      ],
      "type": "VEC3"
    },
    {
      "bufferView": 3,
      "byteOffset": 6291072,
      "componentType": 5126,
      "count": 27714,
      "max": [
        1.0,
        0.9232366681098938,
        0.1713842898607254,
        -1.0
      ],
      "min": [
        0.3028286099433899,
        -0.9530432820320129,
        -0.05569130927324295,
        -1.0
      ],
      "type": "VEC4"
    },
    {
      "bufferView": 1,
      "byteOffset": 6291072,
      "componentType": 5126,
      "count": 27714,
      "max": [
        0.9926108121871948,
        1.0
      ],
      "min": [
        0.0,
        0.15340222418308258
      ],
      "type": "VEC2"
    },
    {
      "bufferView": 1,
      "byteOffset": 6512784,
      "componentType": 5126,
      "count": 27714,
      "max": [
        0.9926108121871948,
        1.0
      ],
      "min": [
        0.0,
        0.15340222418308258
      ],
      "type": "VEC2"
    },
    {
      "bufferView": 0,
      "byteOffset": 9274512,
      "componentType": 5125,
      "count": 161220,
      "type": "SCALAR"
    }
  ],
  "asset": {
    "extras": {
      "author": "Xavier Fischer - Elevation API (https://sketchfab.com/xfischer)",
      "license": "CC-BY-NC-SA-4.0 (http://creativecommons.org/licenses/by-nc-sa/4.0/)",
      "source": "https://sketchfab.com/3d-models/vallee-de-nevache-france-a9a5ff2b2c7e425c994d7519f2954aa9",
      "title": "Vallée de Névache, France"
    },
    "generator": "Sketchfab-12.68.0",
    "version": "2.0"
  },
  "bufferViews": [
    {
      "buffer": 0,
      "byteLength": 9919392,
      "name": "floatBufferViews",
      "target": 34963
    },
    {
      "buffer": 0,
      "byteLength": 6734496,
      "byteOffset": 9919392,
      "byteStride": 8,
      "name": "floatBufferViews",
      "target": 34962
    },
    {
      "buffer": 0,
      "byteLength": 10101744,
      "byteOffset": 16653888,
      "byteStride": 12,
      "name": "floatBufferViews",
      "target": 34962
    },
    {
      "buffer": 0,
      "byteLength": 6734496,
      "byteOffset": 26755632,
      "byteStride": 16,
      "name": "floatBufferViews",
      "target": 34962
    }
  ],
  "buffers": [
    {
      "byteLength": 33490128,
      "uri": "scene.bin"
    }
  ],
  "images": [
    {
      "uri": "textures/material_0_baseColor.jpeg"
    },
    {
      "uri": "textures/material_0_normal.jpeg"
    }
  ],
  "materials": [
    {
      "name": "material_0",
      "normalTexture": {
        "index": 1,
        "texCoord": 1
      },
      "pbrMetallicRoughness": {
        "baseColorTexture": {
          "index": 0
        },
        "metallicFactor": 0.0
      }
    }
  ],
  "meshes": [
    {
      "name": "Object_0",
      "primitives": [
        {
          "attributes": {
            "NORMAL": 1,
            "POSITION": 0,
            "TANGENT": 2,
            "TEXCOORD_0": 3,
            "TEXCOORD_1": 4
          },
          "indices": 5,
          "material": 0,
          "mode": 4
        }
      ]
    },
    {
      "name": "Object_1",
      "primitives": [
        {
          "attributes": {
            "NORMAL": 7,
            "POSITION": 6,
            "TANGENT": 8,
            "TEXCOORD_0": 9,
            "TEXCOORD_1": 10
          },
          "indices": 11,
          "material": 0,
          "mode": 4
        }
      ]
    },
    {
      "name": "Object_2",
      "primitives": [
        {
          "attributes": {
            "NORMAL": 13,
            "POSITION": 12,
            "TANGENT": 14,
            "TEXCOORD_0": 15,
            "TEXCOORD_1": 16
          },
          "indices": 17,
          "material": 0,
          "mode": 4
        }
      ]
    },
    {
      "name": "Object_3",
      "primitives": [
        {
          "attributes": {
            "NORMAL": 19,
            "POSITION": 18,
            "TANGENT": 20,
            "TEXCOORD_0": 21,
            "TEXCOORD_1": 22
          },
          "indices": 23,
          "material": 0,
          "mode": 4
        }
      ]
    },
    {
      "name": "Object_4",
      "primitives": [
        {
          "attributes": {
            "NORMAL": 25,
            "POSITION": 24,
            "TANGENT": 26,
            "TEXCOORD_0": 27,
            "TEXCOORD_1": 28
          },
          "indices": 29,
          "material": 0,
          "mode": 4
        }
      ]
    },
    {
      "name": "Object_5",
      "primitives": [
        {
          "attributes": {
            "NORMAL": 31,
            "POSITION": 30,
            "TANGENT": 32,
            "TEXCOORD_0": 33,
            "TEXCOORD_1": 34
          },
          "indices": 35,
          "material": 0,
          "mode": 4
        }
      ]
    },
    {
      "name": "Object_6",
      "primitives": [
        {
          "attributes": {
            "NORMAL": 37,
            "POSITION": 36,
            "TANGENT": 38,
            "TEXCOORD_0": 39,
            "TEXCOORD_1": 40
          },
          "indices": 41,
          "material": 0,
          "mode": 4
        }
      ]
    }
  ],
  "nodes": [
    {
      "children": [
        1
      ],
      "matrix": [
        1.0,
        0.0,
        0.0,
        0.0,
        0.0,
        2.220446049250313e-16,
        -1.0,
        0.0,
        0.0,
        1.0,
        2.220446049250313e-16,
        0.0,
        0.0,
        0.0,
        0.0,
        1.0
      ],
      "name": "Sketchfab_model"
    },
    {
      "children": [
        2
      ],
      "name": "root"
    },
    {
      "children": [
        3
      ],
      "matrix": [
        1.0,
        0.0,
        0.0,
        0.0,
        0.0,
        2.220446049250313e-16,
        1.0,
        0.0,
        0.0,
        -1.0,
        2.220446049250313e-16,
        0.0,
        0.0,
        0.0,
        0.0,
        1.0
      ],
      "name": "GLTF_SceneRootNode"
    },
    {
      "children": [
        4,
        5,
        6,
        7,
        8,
        9,
        10
      ],
      "name": "_0"
    },
    {
      "mesh": 0,
      "name": "Object_4"
    },
    {
      "mesh": 1,
      "name": "Object_5"
    },
    {
      "mesh": 2,
      "name": "Object_6"
    },
    {
      "mesh": 3,
      "name": "Object_7"
    },
    {
      "mesh": 4,
      "name": "Object_8"
    },
    {
      "mesh": 5,
      "name": "Object_9"
    },
    {
      "mesh": 6,
      "name": "Object_10"
    }
  ],
  "samplers": [
    {
      "magFilter": 9729,
      "minFilter": 9987,
      "wrapS": 10497,
      "wrapT": 10497
    }
  ],
  "scene": 0,
  "scenes": [
    {
      "name": "Sketchfab_Scene",
      "nodes": [
        0
      ]
    }
  ],
  "textures": [
    {
      "sampler": 0,
      "source": 0
    },
    {
      "sampler": 0,
      "source": 1
    }
  ]
}
